<?xml version="1.0" standalone="no"?><!DOCTYPE svg PUBLIC "-//W3C//DTD SVG 1.1//EN" "http://www.w3.org/Graphics/SVG/1.1/DTD/svg11.dtd"><svg t="1642049753535" class="icon" viewBox="0 0 3241 1024" version="1.1" xmlns="http://www.w3.org/2000/svg" p-id="8293" xmlns:xlink="http://www.w3.org/1999/xlink" width="633.0078125" height="200"><defs><style type="text/css"></style></defs><path d="M1380.176504 679.679896c-79.417181 24.452507-159.333393 49.903076-239.748635 73.571392-90.966179 26.876371-181.861067 54.465643-273.754018 77.563639a1653.930522 1653.930522 0 0 1-177.51237 31.438938c-106.079682 14.258022-212.444524 26.733791-318.738076 39.6373-46.623731 5.631919-93.247462 10.337066-139.799903 16.182855a61.095623 61.095623 0 0 0-22.598965 8.340942 175.444957 175.444957 0 0 0-33.506351 23.240576 114.919655 114.919655 0 0 0-19.60478 29.585395c-5.845789 11.406417-8.626103 24.309927-14.899633 35.645054s-14.258022 11.620288-25.236698 3.493216a178.225272 178.225272 0 0 1-59.812401-82.054915 860.186451 860.186451 0 0 1-54.536933-249.515381 223.13804 223.13804 0 0 1 4.063536-55.820155c3.208055-17.893817 12.90351-23.597026 29.799265-16.967046a278.031424 278.031424 0 0 1 59.0995 29.656685 78.91815 78.91815 0 0 0 69.721727 13.545121c31.581518-8.412233 63.234326-16.895756 94.388104-26.805081 106.935163-33.862802 212.515814-71.290109 320.235168-101.802275 90.039407-25.450569 181.932357-45.197929 273.754017-63.590777a2014.230731 2014.230731 0 0 1 316.456793-36.999566c51.899199-2.067413 103.798398-5.988369 155.127276-8.982554-6.77256-26.805081-14.258022-52.968551-19.74736-79.559761a196.190379 196.190379 0 0 1 0.855481-90.752309 97.810029 97.810029 0 0 1 71.290109-72.35946c24.309927-7.129011 41.633423 0.641611 50.615977 21.387033 6.4874 14.970923 1.710963 24.381217-13.901571 29.727975a89.469086 89.469086 0 0 0-27.161531 12.261899c-16.111565 12.475769-18.107688 29.727975-6.701271 46.695021 19.177039 28.516043 38.853109 56.390476 57.887569 84.906519 3.849666 5.774499 7.628042 4.705147 12.832219 3.564506 70.149467-15.541244 140.227644-31.652808 210.590981-46.195991 166.818854-34.504413 333.922869-67.511733 502.951717-89.326506 58.457889-7.556752 117.486099-10.978677 176.300439-15.541244a1515.699001 1515.699001 0 0 0 231.407693-36.144085c103.370658-24.309927 206.741315-49.261465 309.042621-77.064607 91.108759-24.737668 181.148166-53.538872 271.472734-80.985564 30.227006-9.125134 60.097562-19.53349 90.966179-29.585395a48.263404 48.263404 0 0 1-2.637734 7.628042c-22.598964 40.635362-42.346325 83.124267-68.509795 121.193185-40.350202 58.88563-85.54813 114.848365-139.799903 161.828546a942.954268 942.954268 0 0 1-138.160231 102.443886c-75.852676 44.556318-157.33727 75.710095-241.245728 101.160665-142.580217 43.273096-286.800107 79.060731-432.517089 109.287736-90.253278 18.749299-181.005586 35.146024-271.686604 51.542749-48.405984 8.768683-97.310998 14.828343-145.859563 22.955415-9.125134 1.497092-12.404479-1.568382-17.466076-8.340943a295.42621 295.42621 0 0 0-39.708591-47.336632 141.653446 141.653446 0 0 0-195.976509 10.693516c-41.348263 43.201806-53.396291 95.956486-48.905014 153.131154 2.067413 26.733791 14.970923 49.475335 42.774065 59.45595a53.325001 53.325001 0 0 0 20.674132 2.637734 21.957353 21.957353 0 0 1 25.022828 26.805081 38.924399 38.924399 0 0 1-31.153778 34.005382 74.141713 74.141713 0 0 1-60.739172-9.481584 27.803142 27.803142 0 0 0-7.129011-3.778376 78.41912 78.41912 0 0 1-47.978243-42.346325 924.63271 924.63271 0 0 1-35.431184-87.758123c-9.909325-28.516043-17.109626-57.958858-25.165409-86.118452z" p-id="8294"></path></svg>