<?xml version="1.0" standalone="no"?><!DOCTYPE svg PUBLIC "-//W3C//DTD SVG 1.1//EN" "http://www.w3.org/Graphics/SVG/1.1/DTD/svg11.dtd"><svg t="1642051488577" class="icon" viewBox="0 0 1024 1024" version="1.1" xmlns="http://www.w3.org/2000/svg" p-id="14243" xmlns:xlink="http://www.w3.org/1999/xlink" width="200" height="200"><defs><style type="text/css"></style></defs><path d="M511.850667 5.653333a503.061333 503.061333 0 0 0-197.045334 39.797334A504.469333 504.469333 0 0 0 153.92 153.92 504.405333 504.405333 0 0 0 45.44 314.805333a503.072 503.072 0 0 0-39.786667 197.045334V1018.346667h507.552a501.994667 501.994667 0 0 0 196.629334-39.701334A503.36 503.36 0 0 0 870.4 870.4a503.36 503.36 0 0 0 108.234667-160.554667 501.984 501.984 0 0 0 39.701333-196.629333V5.664H511.850667z m424.629333 507.562667c0 233.386667-189.877333 423.253333-423.253333 423.253333H87.509333V511.861333c0-233.973333 190.357333-424.32 424.330667-424.32h424.629333v425.685334z" fill="#4F4F4F" p-id="14244"></path><path d="M523.253333 226.090667l0.138667 1.077333a40 40 0 0 1-33.546667 44.576l-22.538666 3.488-4.213334 0.810667-4.138666 0.810666-2.048 0.416-4.042667 0.832-3.968 0.842667-3.904 0.853333-3.84 0.853334-3.754667 0.874666-3.690666 0.885334-3.626667 0.885333-1.792 0.458667-3.52 0.896-1.728 0.458666-3.413333 0.928-3.349334 0.928-3.274666 0.938667-3.2 0.938667-3.136 0.96-1.546667 0.48-3.018667 0.970666-1.493333 0.490667-2.922667 0.981333-1.44 0.490667-2.816 1.002667-2.741333 1.002666-1.344 0.501334-2.645333 1.013333-1.290667 0.512-2.528 1.024c-3.925333 1.610667-7.786667 3.370667-11.594667 5.258667l-2.101333 1.066666-2.026667 1.088c-1.674667 0.896-3.264 1.813333-4.768 2.730667l-1.781333 1.098667a154.581333 154.581333 0 0 0-69.824 141.973333c0.458667 5.44 1.813333 13.578667 4.064 24.384l-77.344 2.304c-3.018667-1.664-4.906667-5.717333-5.674667-12.181333a234.581333 234.581333 0 0 1 101.098667-220.864c12.522667-8.554667 27.669333-16.266667 45.514667-23.2l3.477333-1.322667a377.728 377.728 0 0 1 16.533333-5.76l3.850667-1.226667c2.592-0.810667 5.226667-1.610667 7.925333-2.4l4.053334-1.173333c2.730667-0.778667 5.504-1.536 8.32-2.293333l4.266666-1.109334a622.56 622.56 0 0 1 17.76-4.288l4.608-1.034666 2.325334-0.501334 4.714666-1.002666 4.789334-0.992 2.410666-0.48 4.885334-0.96c1.642667-0.32 3.285333-0.64 4.96-0.938667l5.013333-0.928 2.549333-0.458667 17.781334-2.688a39.082667 39.082667 0 0 1 44.586666 33.717334z" fill="#40AF7D" p-id="14245"></path></svg>